# AST/ASF file generated using VICON BodyLanguage
# -----------------------------------------------
:version 1.10
:name VICON
:units
  mass 1.0
  length 0.45
  angle deg
:documentation
   .ast/.asf automatically generated from VICON data using
   VICON BodyBuilder and BodyLanguage model FoxedUp or BRILLIANT.MOD
:root
   order TX TY TZ RX RY RZ
   axis XYZ
   position 0 0 0  
   orientation 0 0 0 
:bonedata
  begin
     id 1 
     name lhipjoint
     direction 0.646821 -0.743844 0.168282 
     length 2.62284 
     axis 0 0 0  XYZ
  end
  begin
     id 2 
     name lfemur
     direction 0.34202 -0.939693 0  
     length 7.79098  
     axis 0 0 20  XYZ
    dof rx ry rz
    limits (-160.0 20.0)
           (-70.0 70.0)
           (-60.0 70.0)
  end
  begin
     id 3 
     name ltibia
     direction 0.34202 -0.939693 0   
     length 8.1986   
     axis 0 0 20   XYZ
    dof rx
    limits (-10.0 170.0)
  end
  begin
     id 4 
     name lfoot
     direction 0.0766762 -0.210666 0.974546   
     length 1.95107   
     axis -90 7.62852e-016 20   XYZ
    dof rx rz
    limits (-45.0 90.0)
           (-70.0 20.0)
  end
  begin
     id 5 
     name ltoes
     direction 1.53582e-011 -4.21539e-011 1   
     length 0.983514   
     axis -90 7.62852e-016 20   XYZ
    dof rx
    limits (-90.0 20.0)
  end
  begin
     id 6 
     name rhipjoint
     direction -0.658967 -0.733632 0.165972   
     length 2.65935  
     axis 0 0 0  XYZ 
  end
  begin
     id 7 
     name rfemur
     direction -0.34202 -0.939693 0   
     length 7.69405   
     axis 0 0 -20   XYZ
    dof rx ry rz
    limits (-160.0 20.0)
           (-70.0 70.0)
           (-70.0 60.0)
  end
  begin
     id 8 
     name rtibia
     direction -0.34202 -0.939693 0   
     length 8.15138   
     axis 0 0 -20   XYZ
    dof rx
    limits (-10.0 170.0)
 end
 begin
     id 9 
     name rfoot
     direction -0.0806473 -0.221577 0.971802   
     length 2.09362  
     axis -90 -7.62852e-016 -20   XYZ
    dof rx rz
    limits (-45.0 90.0)
           (-20.0 70.0)
  end
  begin
     id 10 
     name rtoes
     direction -1.53524e-011 -4.2203e-011 1   
     length 1.05224   
     axis -90 -7.62852e-016 -20   XYZ
    dof rx
    limits (-90.0 20.0)
  end
  begin
     id 11 
     name lowerback
     direction -0.0484271 0.997202 0.0569433   
     length 1.86801   
     axis 0 0 0   XYZ
    dof rx ry rz
    limits (-20.0 45.0)
           (-30.0 30.0)
           (-30.0 30.0)
  end
  begin
     id 12 
     name upperback
     direction 0.0148864 0.998882 0.0448682   
     length 1.86634   
     axis 0 0 0   XYZ
    dof rx ry rz
    limits (-20.0 45.0)
           (-30.0 30.0)
           (-30.0 30.0)
  end
  begin
     id 13 
     name thorax
     direction 0.0368776 0.99918 0.0167067   
     length 1.87554   
     axis 0 0 0   XYZ
    dof rx ry rz
    limits (-20.0 45.0)
           (-30.0 30.0)
           (-30.0 30.0)
  end
  begin
     id 14 
     name lowerneck
     direction -0.0200531 0.999751 0.00976032   
     length 1.82429   
     axis 0 0 0   XYZ
    dof rx ry rz
    limits (-20.0 45.0)
           (-30.0 30.0)
           (-30.0 30.0)
  end
  begin
     id 15 
     name upperneck
     direction 0.0113135 0.99728 -0.0728357   
     length 1.79098   
     axis 0 0 0   XYZ
    dof rx ry rz
    limits (-20.0 45.0)
           (-30.0 30.0)
           (-30.0 30.0)
  end
  begin
     id 16
     name head
     direction 0.00559662 0.999607 -0.0274604  
     length 1.88003  
     axis 0 0 0   XYZ
    dof rx ry rz
    limits (-20.0 45.0)
           (-30.0 30.0)
           (-30.0 30.0)
  end
  begin
     id 17 
     name lclavicle
     direction 0.931914 0.362632 -0.00585704  
     length 3.94155  
     axis 0 0 0   XYZ
    dof ry rz
    limits (-20.0 10.0)
           (0.0 20.0)
  end
  begin
     id 18 
     name lhumerus
     direction 1 -4.48969e-011 2.13403e-027   
     length 5.77473   
     axis 180 -30 -90   XYZ
    dof rx ry rz
    limits (-60.0 90.0)
           (-90.0 90.0)
           (-90.0 90.0)
  end
  begin
     id 19
     name lradius
     direction 1 -4.48969e-011 5.41017e-027   
     length 3.53732   
     axis 180 -30 -90   XYZ
    dof rx
    limits (-10.0 170.0)
  end
  begin
     id 20
     name lwrist
     direction 1 -4.48986e-011 1.36145e-026   
     length 1.76866   
     axis -8.75986e-015 90 90   XYZ
    dof ry
    limits (-180.0 0.0)
 end
  begin
     id 21 
     name lhand
     direction 1 -4.48703e-011 2.72291e-026   
     length 0.556229   
     axis -1.73745e-014 90 90   XYZ
    dof rx rz
    limits (-90.0 90.0)
           (-45.0 45.0)
  end
  begin
     id 22 
     name lfingers
     direction 1 -4.49204e-011 5.44582e-026   
     length 0.448446   
     axis -3.4749e-014 90 90   XYZ
    dof rx
    limits (0.0 90.0)
  end
  begin
     id 23
     name lthumb
     direction 0.707107 -6.34773e-011 0.707107   
     length 0.643881   
     axis -90 45 2.85299e-015   XYZ
    dof rx rz
    limits (-45.0 45.0)
           (-45.0 45.0)
  end
  begin
     id 24 
     name rclavicle
     direction -0.951782 0.300043 0.0639076   
     length 3.96398  
     axis 0 0 0   XYZ 
    dof ry rz
    limits (-10.0 20.0)
           (-20.0 0.0)
  end
  begin
     id 25 
     name rhumerus
     direction -1 -4.48967e-011 6.14867e-028  
     length 5.79581   
     axis 180 30 90   XYZ
    dof rx ry rz
    limits (-90.0 60.0)
           (-90.0 90.0)
           (-90.0 90.0)
  end
  begin
     id 26 
     name rradius
     direction -1 -4.48966e-011 9.26908e-027   
     length 3.37412   
     axis 180 30 90   XYZ
    dof rx
    limits (-10.0 170.0)
  end
  begin
     id 27 
     name rwrist
     direction -1 -4.48999e-011 1.36145e-026   
     length 1.68706   
     axis -8.75986e-015 -90 -90   XYZ
    dof ry
    limits (-180.0 0.0)
  end
  begin
     id 28
     name rhand
     direction -1 -4.49032e-011 2.72291e-026   
     length 0.680496   
     axis -1.73745e-014 -90 -90   XYZ
    dof rx rz
    limits (-90.0 90.0)
           (-45.0 45.0)
  end
  begin
     id 29
     name rfingers
     direction -1 -4.48876e-011 5.44582e-026   
     length 0.548633   
     axis -3.4749e-014 -90 -90   XYZ
    dof rx
    limits (0.0 90.0)
  end
  begin
     id 30
     name rthumb
     direction -0.707107 -6.34964e-011 0.707107   
     length 0.787731   
     axis -90 -45 -2.85299e-015   XYZ
    dof rx rz
    limits (-45.0 45.0)
           (-45.0 45.0)
  end
:hierarchy
  begin
    root lhipjoint rhipjoint lowerback
    lhipjoint lfemur
    lfemur ltibia
    ltibia lfoot
    lfoot ltoes
    rhipjoint rfemur
    rfemur rtibia
    rtibia rfoot
    rfoot rtoes
    lowerback upperback
    upperback thorax
    thorax lowerneck lclavicle rclavicle
    lowerneck upperneck
    upperneck head
    lclavicle lhumerus
    lhumerus lradius
    lradius lwrist
    lwrist lhand lthumb
    lhand lfingers
    rclavicle rhumerus
    rhumerus rradius
    rradius rwrist
    rwrist rhand rthumb
    rhand rfingers
  end

#!OML:ASF H:\Terrain\Patient Classification 1\PaulMetrics\March1\PaulMetrics.ASF
:FULLY-SPECIFIED
:DEGREES
409
root -11.0081 18.2239 9.25756 -159.153 -38.6486 172.724
lowerback -6.84682 -0.54096 -9.65743
upperback -5.95939 -0.700662 -0.838101
thorax -2.33683 -0.219521 4.5119
lowerneck -2.39381 -3.86284 -4.48932
upperneck 11.0798 -5.79295 5.39
head 3.98119 -2.90628 2.11872
rclavicle 3.98695e-015 3.22031e-014
rhumerus -56.0026 21.1671 -97.1426
rradius 48.0699
rwrist -9.07241
rhand -9.85631 -33.7218
rfingers 7.12502
rthumb 16.122 -63.0712
lclavicle 3.98695e-015 3.22031e-014
lhumerus -48.3839 -6.96567 74.5401
lradius 40.6044
lwrist 4.61896
lhand -16.9834 -6.26552
lfingers 7.12502
lthumb 9.25132 23.5115
rfemur -27.8494 -7.57453 20.6909
rtibia 69.758
rfoot -3.31053 -12.8448
rtoes -15.16
lfemur -36.0492 5.64814 -24.1984
ltibia 30.7194
lfoot -10.0086 -0.426776
ltoes -10.8791
410
root -11.1044 18.2458 9.17665 -159.21 -38.3386 172.794
lowerback -6.75066 -0.577545 -9.43
upperback -5.9618 -0.772771 -0.907636
thorax -2.3804 -0.263135 4.30933
lowerneck -2.57289 -3.92274 -4.9173
upperneck 11.3401 -5.94391 6.04111
head 4.12803 -2.96917 2.37349
rclavicle -3.46739e-014 -1.5207e-014
rhumerus -56.1169 20.783 -97.1515
rradius 47.4272
rwrist -8.84937
rhand -10.8573 -33.4918
rfingers 7.12502
rthumb 15.158 -62.9167
lclavicle -3.46739e-014 -1.5207e-014
lhumerus -47.6233 -7.3829 74.4808
lradius 40.9152
lwrist 5.30441
lhand -16.7696 -6.10235
lfingers 7.12502
lthumb 9.45763 23.6654
rfemur -29.2502 -8.00335 20.907
rtibia 70.2469
rfoot -3.46253 -11.3887
rtoes -16.255
lfemur -35.5237 5.7378 -24.2724
ltibia 30.5987
lfoot -10.4333 -0.0434333
ltoes -11.6662
411
root -11.2015 18.2588 9.09356 -159.2 -38.0046 172.624
lowerback -6.73461 -0.735131 -9.55724
upperback -5.85503 -0.962686 -0.854376
thorax -2.24828 -0.358537 4.42603
lowerneck -2.92648 -3.92082 -5.34562
upperneck 11.7051 -5.97206 6.40451
head 4.32213 -2.97834 2.54309
rclavicle -6.54817e-014 -1.10574e-014
rhumerus -56.103 20.6123 -96.9173
rradius 46.8411
rwrist -8.66818
rhand -11.7245 -33.3388
rfingers 7.12502
rthumb 14.3225 -62.8248
lclavicle -6.54817e-014 -1.10574e-014
lhumerus -46.9977 -7.56901 74.5925
lradius 41.3819
lwrist 5.9752
lhand -16.5025 -5.98789
lfingers 7.12502
lthumb 9.71532 23.768
rfemur -30.5042 -8.51605 20.9734
rtibia 70.6154
rfoot -3.87382 -10.317
rtoes -18.5371
lfemur -34.8886 5.8564 -24.5767
ltibia 30.4641
lfoot -10.823 0.319057
ltoes -13.2369
412
root -11.2891 18.2686 9.01253 -159.422 -37.5234 172.71
lowerback -6.48927 -0.831977 -9.64129
upperback -5.84908 -1.10666 -0.700812
thorax -2.35481 -0.416783 4.63014
lowerneck -2.94108 -3.92845 -5.41784
upperneck 11.844 -5.96922 6.23102
head 4.36397 -2.98942 2.5004
rclavicle 2.8343e-014 1.8567e-014
rhumerus -56.1302 20.4693 -96.5406
rradius 46.2933
rwrist -8.51101
rhand -11.1415 -33.507
rfingers 7.12502
rthumb 14.8842 -62.9523
lclavicle 2.8343e-014 1.8567e-014
lhumerus -46.6383 -7.55036 74.7243
lradius 41.9631
lwrist 6.52559
lhand -16.5504 -6.07987
lfingers 7.12502
lthumb 9.66918 23.6782
rfemur -31.7004 -8.74488 21.2841
rtibia 70.8327
rfoot -4.37676 -9.44977
rtoes -19.7004
lfemur -34.1878 6.01966 -24.6286
ltibia 30.3172
lfoot -11.2857 0.827088
ltoes -13.8555
413
root -11.376 18.2822 8.93267 -159.633 -37.0566 172.898
lowerback -6.16112 -0.848679 -9.48192
upperback -5.96138 -1.18299 -0.652785
thorax -2.64425 -0.444002 4.59415
lowerneck -2.76699 -4.00117 -5.35125
upperneck 11.7649 -6.06833 6.13256
head 4.31199 -3.0454 2.45797
rclavicle 1.43314e-014 -8.00108e-015
rhumerus -56.2811 20.2733 -96.3222
rradius 45.8211
rwrist -8.76706
rhand -10.4597 -33.9965
rfingers 7.12502
rthumb 15.5409 -63.392
lclavicle 1.43314e-014 -8.00108e-015
lhumerus -46.149 -7.43825 74.6043
lradius 42.34
lwrist 6.80761
lhand -16.5723 -6.44693
lfingers 7.12502
lthumb 9.648 23.3121
rfemur -32.9198 -8.94975 21.714
rtibia 70.8331
rfoot -4.93038 -8.90552
rtoes -19.0929
lfemur -33.5628 6.01183 -24.5104
ltibia 30.2196
lfoot -11.8527 1.23262
ltoes -12.3206
414
root -11.4763 18.3002 8.84578 -159.617 -36.7275 172.955
lowerback -6.28373 -0.946249 -9.30089
upperback -5.95969 -1.30797 -0.630895
thorax -2.55491 -0.517631 4.50817
lowerneck -2.58805 -4.10344 -5.07153
upperneck 11.3743 -6.17552 5.92193
head 4.15556 -3.0974 2.34899
rclavicle -8.6778e-015 -4.4242e-014
rhumerus -56.4175 20.0378 -96.0813
rradius 45.5523
rwrist -9.28855
rhand -11.0866 -34.0452
rfingers 7.12502
rthumb 14.937 -63.4865
lclavicle -8.6778e-015 -4.4242e-014
lhumerus -45.4434 -7.35105 74.4985
lradius 42.6827
lwrist 7.00353
lhand -16.8214 -6.24287
lfingers 7.12502
lthumb 9.40763 23.5272
rfemur -34.129 -9.48418 22.085
rtibia 70.5864
rfoot -5.66392 -8.74976
rtoes -17.2071
lfemur -33.0512 5.78645 -24.4543
ltibia 30.2334
lfoot -12.5699 1.39015
ltoes -8.9647
415
root -11.5771 18.3215 8.7541 -159.88 -36.3541 173.286
lowerback -6.49578 -1.03659 -8.99368
upperback -5.83011 -1.39467 -0.484479
thorax -2.28322 -0.578948 4.4798
lowerneck -2.57053 -4.11964 -4.91144
upperneck 11.1417 -6.17159 5.79005
head 4.07338 -3.09307 2.28519
rclavicle -2.32873e-014 1.5704e-014
rhumerus -56.447 19.8467 -95.7708
rradius 45.3054
rwrist -9.35287
rhand -11.3808 -33.8022
rfingers 7.12502
rthumb 14.6536 -63.2645
lclavicle -2.32873e-014 1.5704e-014
lhumerus -44.8176 -7.39316 74.6148
lradius 43.2307
lwrist 7.34607
lhand -17.0085 -6.03599
lfingers 7.12502
lthumb 9.22714 23.7421
rfemur -35.1906 -9.92194 22.6995
rtibia 70.212
rfoot -6.27036 -8.77146
rtoes -16.822
lfemur -32.4553 5.66717 -24.201
ltibia 30.3023
lfoot -13.3275 1.89096
ltoes -7.74339
416
root -11.6671 18.3298 8.66441 -160.308 -35.9014 173.824
lowerback -6.43684 -1.07213 -8.51869
upperback -5.81439 -1.45814 -0.356157
thorax -2.2885 -0.620877 4.34579
lowerneck -2.70182 -4.08437 -4.96865
upperneck 11.2664 -6.14655 5.94744
head 4.13789 -3.07533 2.33982
rclavicle 7.50723e-014 -1.31695e-015
rhumerus -56.5674 19.6935 -95.7099
rradius 45.0041
rwrist -9.29016
rhand -10.5542 -34.5244
rfingers 7.12502
rthumb 15.4499 -63.927
lclavicle 7.50723e-014 -1.31695e-015
lhumerus -44.3604 -7.35394 74.6123
lradius 43.8005
lwrist 7.454
lhand -16.7213 -5.99401
lfingers 7.12502
lthumb 9.50428 23.7717
rfemur -36.2036 -10.059 23.497
rtibia 69.7139
rfoot -7.00067 -9.00264
rtoes -15.9278
lfemur -31.931 5.81386 -23.9062
ltibia 30.3772
lfoot -13.868 3.00836
ltoes -11.8789
417
root -11.7513 18.3303 8.58044 -160.371 -35.4744 174.015
lowerback -6.39001 -1.17865 -8.31703
upperback -5.89616 -1.62187 -0.266628
thorax -2.37785 -0.704248 4.32045
lowerneck -2.70622 -4.09874 -4.94157
upperneck 11.2917 -6.15657 5.81996
head 4.1424 -3.08573 2.29554
rclavicle 3.52152e-014 -6.95746e-016
rhumerus -56.8436 19.7555 -95.7495
rradius 44.7933
rwrist -9.56202
rhand -10.642 -35.1667
rfingers 7.12502
rthumb 15.3653 -64.5758
lclavicle 3.52152e-014 -6.95746e-016
lhumerus -43.9115 -7.05779 74.5385
lradius 44.3088
lwrist 7.17976
lhand -16.121 -5.68077
lfingers 7.12502
lthumb 10.0835 24.0576
rfemur -37.3901 -10.2511 24.0517
rtibia 69.0637
rfoot -7.76656 -9.29929
rtoes -13.4917
lfemur -31.6176 5.79389 -23.9184
ltibia 30.449
lfoot -14.5392 4.18405
ltoes -14.9508
